<?xml version="1.0" standalone="no"?>
<!DOCTYPE svg PUBLIC "-//W3C//DTD SVG 20010904//EN"
 "http://www.w3.org/TR/2001/REC-SVG-20010904/DTD/svg10.dtd">
<svg version="1.0" xmlns="http://www.w3.org/2000/svg"
 width="2560.000000pt" height="1680.000000pt" viewBox="0 0 2560.000000 1680.000000"
 preserveAspectRatio="xMidYMid meet">

<g transform="translate(0.000000,1680.000000) scale(0.100000,-0.100000)"
fill="#0a0a0a" stroke="none">
<path d="M570 7664 c-63 -136 -116 -250 -118 -255 -2 -4 19 -9 46 -11 l49 -3
-93 -199 c-52 -110 -94 -201 -94 -203 0 -2 24 -3 54 -3 l54 0 -21 -50 c-11
-27 -24 -50 -28 -50 -3 0 -97 43 -209 95 -112 52 -204 95 -206 95 -2 0 -4
-1593 -4 -3540 l0 -3540 12800 0 12800 0 0 2935 0 2934 -97 -45 c-54 -26 -105
-48 -113 -51 -13 -3 -56 74 -98 179 -2 4 19 8 46 8 l50 0 -79 170 c-43 93 -79
172 -79 174 0 3 18 6 39 8 l40 3 -70 149 c-38 81 -69 152 -69 157 0 4 15 9 34
11 l33 3 -84 180 c-46 99 -87 183 -91 187 -4 4 -46 -77 -94 -180 l-87 -187 35
-3 c43 -4 44 3 -42 -178 -35 -75 -64 -138 -64 -140 0 -2 18 -4 40 -4 22 0 40
-2 40 -3 0 -2 -36 -80 -79 -173 l-79 -169 48 -3 49 -3 -18 -42 c-10 -23 -47
-100 -81 -172 l-62 -130 -18 40 c-25 54 -25 53 18 57 l39 3 -69 149 c-37 81
-68 150 -68 152 0 2 16 4 36 4 20 0 34 4 32 9 -19 51 -173 371 -178 371 -6 0
-156 -312 -177 -367 -4 -9 6 -13 31 -13 20 0 36 -2 36 -4 0 -2 -31 -71 -69
-152 l-70 -149 40 -3 c21 -2 39 -5 39 -8 0 -2 -36 -81 -79 -174 l-79 -170 42
0 c24 0 45 -3 49 -6 3 -4 -11 -41 -33 -83 l-38 -77 -277 -130 c-153 -71 -280
-130 -284 -132 -6 -2 -33 52 -69 140 -2 4 19 8 47 8 28 0 51 3 51 8 0 4 -39
88 -85 187 l-85 180 45 5 45 5 -75 159 c-41 87 -75 165 -75 173 0 8 12 13 35
13 19 0 35 1 35 3 0 7 -182 393 -189 400 -4 4 -50 -84 -102 -195 l-95 -203 38
-3 c47 -4 50 6 -43 -189 -38 -80 -69 -149 -69 -154 0 -5 18 -9 41 -9 49 0 53
14 -51 -207 l-79 -168 54 -3 53 -3 -39 -82 c-21 -45 -43 -81 -49 -79 -6 1
-117 52 -248 113 l-236 110 -205 -96 -205 -96 -81 36 c-44 20 -118 55 -164 78
l-84 42 -53 115 c-29 63 -53 121 -54 128 0 7 12 12 30 12 17 0 30 3 30 8 0 13
-165 362 -171 362 -3 0 -44 -82 -91 -182 l-85 -183 33 -3 c19 -2 34 -8 34 -13
0 -8 -27 -67 -35 -77 -1 -1 -228 103 -504 232 -277 129 -509 232 -516 229 -10
-3 -30 29 -64 103 -28 59 -51 108 -51 110 0 2 17 4 39 6 l38 3 -63 135 -63
135 30 3 c16 2 29 7 29 12 0 5 -25 61 -55 125 -30 65 -55 119 -55 121 0 1 13
4 28 6 l29 3 -71 152 c-38 84 -72 151 -74 148 -5 -4 -142 -296 -142 -301 0 -2
11 -4 25 -4 14 0 25 -5 25 -10 0 -6 -25 -63 -55 -128 l-55 -117 34 -3 34 -3
-64 -135 c-35 -75 -64 -138 -64 -140 0 -2 18 -4 39 -4 l39 0 -78 -167 -78
-168 39 -3 c21 -2 39 -6 38 -10 0 -4 -19 -45 -42 -91 l-42 -85 -81 -37 -81
-37 -114 245 c-63 135 -115 249 -117 254 -2 5 26 9 63 9 60 0 66 2 61 18 -30
76 -312 669 -317 664 -4 -4 -77 -158 -162 -342 l-156 -334 -40 84 -40 85 45 3
c24 2 44 5 44 6 0 2 -34 76 -75 165 -41 88 -75 165 -75 171 0 5 16 10 35 10
19 0 35 3 35 7 0 9 -180 396 -189 406 -5 5 -169 -327 -199 -404 -2 -5 15 -9
37 -9 23 0 41 -2 41 -4 0 -2 -35 -79 -79 -172 l-78 -169 43 -3 c24 -2 44 -5
44 -8 0 -2 -37 -84 -82 -181 l-82 -176 -28 59 c-37 80 -36 84 17 84 25 0 45 2
45 4 0 2 -38 86 -85 186 -47 100 -85 184 -85 186 0 1 20 4 44 6 l44 3 -106
228 c-58 125 -108 227 -111 227 -3 0 -54 -102 -112 -228 l-105 -227 44 -3 c51
-4 53 11 -21 -150 l-52 -114 -63 134 -64 133 -17 -35 c-10 -19 -74 -155 -142
-302 -68 -148 -126 -268 -130 -268 -4 0 -12 14 -19 31 -7 16 -16 26 -21 22 -8
-9 -209 -438 -209 -447 0 -3 18 -6 40 -6 22 0 40 -4 40 -9 0 -4 -20 -51 -44
-102 l-43 -94 -32 62 c-17 34 -31 67 -31 73 0 5 16 10 35 10 19 0 35 2 35 5 0
3 -24 57 -54 120 -75 157 -74 155 -37 155 17 0 31 2 31 4 0 2 -25 56 -55 121
-30 64 -55 121 -55 126 0 5 12 9 26 9 14 0 24 4 22 9 -15 42 -134 291 -139
291 -6 0 -139 -280 -139 -293 0 -4 12 -7 26 -7 31 0 31 -2 -37 -146 -27 -57
-49 -107 -49 -109 0 -3 14 -5 31 -5 21 0 30 -4 26 -12 -24 -62 -101 -217 -106
-213 -4 2 -40 76 -81 164 -41 88 -76 159 -78 156 -8 -7 -212 -448 -212 -456 0
-5 18 -9 41 -9 37 0 40 -2 33 -22 -3 -13 -23 -54 -42 -93 l-35 -70 -62 130
-62 130 29 3 c15 2 28 7 28 13 0 11 -139 311 -149 322 -5 5 -125 -236 -158
-320 -4 -9 5 -13 26 -13 17 0 31 -2 31 -4 0 -2 -19 -45 -43 -96 l-43 -93 -32
70 c-18 38 -32 73 -32 76 0 4 16 7 35 7 19 0 35 4 35 10 0 9 -184 407 -192
415 -3 3 -182 -375 -196 -416 -2 -5 15 -9 37 -9 l40 0 -18 -42 c-10 -24 -43
-94 -73 -157 l-54 -114 -99 215 c-55 119 -102 214 -104 212 -3 -3 -53 -107
-111 -232 l-106 -227 43 -3 c24 -2 43 -6 43 -10 -1 -4 -15 -38 -33 -76 l-32
-69 -62 134 -62 134 40 3 c22 2 39 7 37 12 -19 55 -195 417 -199 412 -4 -4
-44 -88 -90 -187 -45 -99 -86 -184 -90 -189 -4 -4 -14 5 -22 20 l-15 29 -27
-63 c-15 -34 -30 -62 -34 -62 -3 0 -47 86 -96 192 l-89 191 -26 -58 -26 -58
-114 246 c-63 136 -117 247 -120 247 -3 0 -47 -91 -99 -203 -51 -111 -97 -206
-102 -211 -5 -6 -27 30 -53 85 l-44 94 -57 -120 c-31 -66 -68 -144 -80 -172
l-24 -53 34 0 34 0 -61 -130 c-34 -72 -65 -127 -69 -123 -4 5 -49 99 -100 210
-51 111 -95 200 -97 198 -8 -7 -212 -448 -212 -456 0 -5 18 -9 40 -9 22 0 40
-3 40 -7 0 -14 -104 -233 -111 -233 -6 0 -130 259 -129 273 0 4 15 7 34 7 l35
0 -64 134 -64 135 34 3 33 3 -75 160 c-41 88 -77 163 -82 168 -5 5 -133 -254
-159 -324 -2 -5 10 -9 27 -9 17 0 31 -2 31 -4 0 -2 -18 -44 -41 -93 l-41 -88
-23 45 c-12 25 -26 55 -29 68 -7 21 -4 22 38 22 l45 0 -91 193 c-49 105 -99
212 -110 236 l-19 45 -43 -93 c-24 -51 -46 -94 -49 -97 -2 -2 -44 80 -92 183
-48 104 -93 199 -100 213 -15 27 -12 31 -167 -300 l-40 -85 -53 113 c-75 157
-74 150 -27 154 l39 3 -96 207 c-53 114 -99 204 -103 200 -4 -4 -49 -98 -101
-209 l-95 -203 39 0 c21 0 39 -4 39 -9 0 -4 -15 -41 -34 -82 l-34 -73 -15 34
c-8 19 -51 113 -96 208 -45 95 -81 175 -81 178 0 2 23 4 50 4 28 0 50 4 50 9
0 5 -41 96 -90 202 -49 105 -90 196 -90 200 0 5 20 9 45 9 25 0 45 2 45 4 0 8
-221 481 -229 488 -3 4 -58 -104 -122 -240 l-115 -247 49 -3 c26 -2 47 -7 45
-11 -17 -46 -134 -291 -139 -291 -3 0 -72 143 -154 318 -81 174 -150 320 -154
324 -5 5 -289 -591 -317 -664 -5 -16 1 -18 60 -18 36 0 66 -2 66 -4 0 -5 -91
-200 -95 -204 -2 -2 -47 16 -99 41 l-96 46 -222 -104 c-123 -58 -226 -101
-229 -97 -4 4 -34 66 -67 137 l-60 130 33 3 33 3 -77 164 c-42 91 -79 165 -82
165 -3 0 -39 -72 -80 -160 -40 -88 -77 -156 -81 -152 -3 4 -33 65 -66 135 -33
70 -62 130 -64 132 -4 4 -132 -263 -155 -322 -4 -9 5 -13 26 -13 17 0 31 -2
31 -4 0 -3 -27 -62 -60 -132 -33 -70 -60 -131 -60 -135 0 -5 16 -9 35 -9 l35
0 -32 -65 c-18 -36 -35 -65 -38 -65 -11 0 -585 271 -594 281 -6 5 17 9 62 9
40 0 72 3 72 7 0 3 -56 127 -125 275 -69 147 -125 270 -125 273 0 3 29 5 65 5
36 0 65 2 65 5 0 8 -311 670 -318 677 -7 7 -322 -654 -322 -674 0 -4 29 -8 65
-10 l65 -3 -61 -130 c-33 -71 -64 -133 -68 -138 -4 -4 -42 8 -84 28 -60 28
-81 33 -100 26 -24 -9 -27 -5 -78 106 -30 64 -55 120 -57 124 -2 5 11 9 28 9
38 0 43 -18 -51 185 -40 86 -76 152 -80 148 -10 -11 -149 -312 -149 -323 0 -5
13 -10 29 -12 l29 -3 -54 -113 c-73 -154 -72 -152 -35 -152 33 0 40 -15 19
-42 -12 -15 -60 5 -451 188 l-439 205 -461 -216 c-254 -118 -465 -215 -468
-215 -6 0 -99 192 -99 204 0 3 14 6 31 6 17 0 29 4 27 9 -28 73 -154 329 -160
323 -4 -4 -40 -79 -81 -167 l-75 -160 33 -3 34 -3 -64 -135 -64 -134 35 0 c41
0 42 -8 6 -78 -27 -51 -32 -55 -132 -102 -69 -32 -110 -46 -120 -40 -8 4 -114
54 -235 110 -121 57 -254 119 -295 138 l-75 36 36 5 36 6 -103 220 c-57 121
-103 223 -103 228 -1 4 22 7 49 7 28 0 50 4 50 9 0 4 -41 95 -90 200 -50 106
-90 195 -90 197 0 2 20 4 45 4 25 0 45 3 45 8 0 13 -224 492 -231 492 -3 0
-58 -111 -121 -247 l-115 -248 48 -5 48 -5 -93 -200 -93 -200 54 -3 c29 -2 53
-4 53 -6 0 -4 -162 -351 -166 -355 -2 -2 -160 69 -351 158 l-348 162 -173 -80
-172 -80 -453 210 c-248 116 -457 216 -464 222 -13 13 -193 393 -193 408 0 5
23 9 50 9 28 0 50 2 50 5 0 2 -40 91 -90 197 -49 105 -90 195 -90 200 0 4 20
8 45 8 25 0 45 2 45 5 0 5 -201 439 -223 480 -12 24 -18 13 -127 -221z m10040
-1811 c-1 -5 -7 -19 -15 -33 -21 -37 -20 -39 39 -42 l53 -3 -36 -79 -36 -79
-53 114 c-29 63 -52 117 -52 122 0 4 23 7 50 7 28 0 50 -3 50 -7z m8290 -3 c0
-14 -53 -120 -60 -120 -7 0 -60 106 -60 120 0 6 27 10 60 10 33 0 60 -4 60
-10z m-9830 -50 c0 -15 -53 -120 -61 -120 -4 0 -14 17 -22 38 l-15 37 30 3
c26 3 29 6 24 28 -6 21 -3 24 19 24 14 0 25 -4 25 -10z m9180 -155 c0 -11 -34
-75 -40 -75 -4 0 -14 18 -23 40 l-15 40 39 0 c21 0 39 -2 39 -5z m549 -17 c-6
-13 -13 -24 -14 -26 -1 -1 -7 9 -13 23 -11 23 -10 25 14 25 22 0 24 -2 13 -22z
m5935 -103 c-4 -8 -10 -15 -15 -15 -5 0 -9 7 -9 15 0 8 7 15 15 15 9 0 12 -6
9 -15z m-15374 -9 c-25 -14 -40 -13 -40 5 0 5 15 9 33 9 l32 -1 -25 -13z
m7970 -11 c0 -11 -24 -55 -30 -55 -6 0 -30 44 -30 55 0 3 14 5 30 5 17 0 30
-2 30 -5z m-6030 -189 c0 -2 -10 -25 -21 -51 -23 -52 -25 -52 -55 20 l-14 35
45 0 c25 0 45 -2 45 -4z m510 -126 c0 -6 -14 -38 -31 -72 l-31 -62 -24 44
c-32 63 -31 70 16 70 29 0 40 4 40 15 0 8 7 15 15 15 8 0 15 -5 15 -10z m304
-22 l-16 -32 -14 25 c-19 35 -17 39 16 39 l31 0 -17 -32z m-794 -10 c0 -7 -4
-19 -9 -27 -7 -11 -11 -10 -20 6 -5 11 -7 23 -4 27 11 11 33 7 33 -6z m5210
-22 c0 -15 -14 -35 -21 -30 -15 9 -10 34 6 34 8 0 15 -2 15 -4z m-40 -94 c0
-5 -6 -16 -13 -26 -12 -17 -14 -16 -25 8 -11 24 -10 26 13 26 14 0 25 -4 25
-8z m-2010 -190 c0 -15 -27 -45 -32 -36 -18 33 -17 44 7 44 14 0 25 -4 25 -8z
m1610 -2 c0 -15 -23 -60 -30 -60 -7 0 -30 45 -30 60 0 6 14 10 30 10 17 0 30
-4 30 -10z m-2690 -119 c0 -21 -73 -161 -81 -154 -4 4 -19 34 -33 66 l-25 57
45 0 c41 0 45 2 39 20 -5 17 -2 20 24 20 17 0 31 -4 31 -9z m1920 5 c0 -2 -17
-39 -37 -81 l-36 -77 -25 48 c-14 27 -31 64 -39 82 l-13 32 75 0 c41 0 75 -2
75 -4z m-515 -225 c3 -5 1 -12 -5 -16 -5 -3 -10 1 -10 9 0 18 6 21 15 7z
m-1939 -112 c-16 -38 -28 -38 -44 0 l-12 31 34 0 35 0 -13 -31z"/>
</g>
</svg>
