<?xml version="1.0" standalone="no"?>
<!DOCTYPE svg PUBLIC "-//W3C//DTD SVG 20010904//EN"
 "http://www.w3.org/TR/2001/REC-SVG-20010904/DTD/svg10.dtd">
<svg version="1.0" xmlns="http://www.w3.org/2000/svg"
 width="2560.000000pt" height="1680.000000pt" viewBox="0 0 2560.000000 1680.000000"
 preserveAspectRatio="xMidYMid meet">

<g transform="translate(0.000000,1680.000000) scale(0.100000,-0.100000)"
fill="#151515" stroke="none">
<path d="M19060 7895 c-30 -65 -56 -122 -58 -126 -2 -5 6 -9 18 -9 26 0 23
-14 -26 -112 -19 -37 -34 -70 -34 -73 0 -3 9 -5 20 -5 29 0 25 -16 -25 -122
-25 -53 -45 -98 -45 -102 0 -3 10 -6 23 -6 12 0 -103 -59 -257 -131 -153 -71
-280 -128 -281 -127 -4 4 -65 140 -65 144 0 2 9 4 21 4 13 0 19 5 16 13 -19
49 -101 217 -106 217 -3 0 -29 -51 -58 -113 -46 -102 -50 -112 -32 -115 10 -2
19 -7 19 -11 0 -5 -18 -47 -40 -94 -22 -47 -40 -88 -40 -91 0 -3 9 -6 20 -6
25 0 25 -16 2 -54 -14 -23 -61 -49 -227 -127 l-210 -98 -46 97 -45 97 27 3 28
3 -28 62 c-16 34 -46 100 -68 147 l-40 85 -67 -139 c-36 -76 -66 -142 -66
-147 0 -4 11 -9 25 -11 l25 -3 -54 -115 -54 -115 30 -3 c18 -2 28 -8 25 -15
-3 -7 -15 -35 -26 -62 l-22 -50 -416 -194 c-229 -107 -424 -195 -432 -197 -12
-3 -26 18 -51 72 -19 42 -36 81 -38 85 -2 5 8 9 22 9 14 0 26 4 26 9 0 5 -30
71 -66 147 l-67 139 -59 -125 c-84 -176 -82 -170 -53 -170 14 0 25 -4 25 -9 0
-4 -22 -56 -50 -114 -27 -58 -50 -108 -50 -111 0 -3 13 -6 29 -8 l29 -3 -22
-43 c-21 -43 -24 -45 -265 -158 -135 -62 -245 -113 -247 -111 -1 1 -16 32 -32
70 l-31 67 29 0 29 0 -41 88 c-22 48 -53 114 -68 147 l-27 60 -61 -127 c-80
-168 -80 -168 -48 -168 14 0 26 -2 26 -4 0 -1 -24 -54 -54 -117 l-54 -114 29
-3 c46 -5 36 -27 -24 -54 l-37 -18 -51 108 c-76 161 -74 152 -38 152 17 0 29
4 27 9 -27 71 -145 308 -150 303 -4 -4 -38 -75 -76 -157 l-70 -150 30 -3 c16
-2 28 -7 26 -11 -25 -63 -93 -201 -99 -201 -5 0 -46 17 -92 39 -76 35 -86 37
-109 25 -26 -13 -26 -13 -60 59 l-35 72 28 3 28 3 -28 62 c-16 34 -46 100 -68
147 l-40 85 -67 -138 c-36 -76 -66 -143 -66 -147 0 -5 11 -10 24 -12 l25 -3
-54 -115 -53 -115 30 -3 c22 -3 28 -7 24 -19 -3 -8 -6 -16 -6 -19 0 -2 -17
-12 -37 -23 l-38 -19 -174 81 -174 82 -44 91 c-24 50 -43 94 -43 98 0 3 11 6
25 6 l25 0 -34 68 c-45 91 -51 112 -32 112 22 0 21 7 -18 93 -32 69 -33 76
-16 79 16 3 13 13 -29 102 l-46 99 -47 -99 c-42 -89 -45 -99 -28 -102 17 -3
16 -9 -16 -78 -38 -85 -40 -94 -19 -94 20 0 20 -1 -24 -96 l-40 -84 25 0 c16
0 24 -5 21 -12 -2 -7 -12 -12 -22 -11 -9 0 -69 -23 -131 -52 l-115 -54 -127
59 c-124 58 -162 90 -108 90 14 0 26 4 26 9 0 4 -22 56 -50 115 -28 59 -50
109 -50 111 0 3 11 5 25 5 14 0 25 3 24 8 -1 18 -126 274 -134 274 -7 0 -135
-264 -135 -278 0 -2 11 -4 25 -4 14 0 25 -2 25 -4 0 -2 -13 -34 -29 -70 l-30
-65 -93 44 c-92 43 -93 44 -125 107 -38 76 -38 76 -14 80 19 3 17 9 -19 86
-35 74 -37 82 -19 82 10 0 19 2 19 4 0 1 -21 48 -47 102 l-46 99 -47 -100
c-43 -91 -46 -100 -29 -105 18 -5 17 -10 -16 -78 -39 -83 -41 -92 -20 -92 22
0 19 -11 -22 -95 -35 -71 -38 -74 -50 -52 -17 30 -16 35 6 39 17 3 16 10 -19
86 -35 75 -37 82 -19 82 10 0 19 2 19 4 0 2 -21 48 -47 102 l-47 99 -47 -100
c-42 -90 -45 -100 -29 -103 17 -3 16 -10 -16 -79 -39 -86 -40 -93 -18 -93 19
0 13 -21 -32 -112 l-34 -68 25 0 c14 0 25 -3 25 -6 0 -3 -15 -38 -33 -77 l-34
-72 -134 -62 -135 -63 -875 409 c-517 242 -873 414 -871 421 3 13 -99 240
-109 240 -3 0 -22 -37 -42 -81 -39 -87 -36 -85 -104 -58 -29 12 -38 9 -142
-39 -61 -29 -114 -52 -118 -52 -4 0 -147 65 -319 145 -171 80 -316 145 -322
145 -6 0 -156 -68 -333 -150 -177 -83 -326 -149 -331 -148 -4 2 -28 46 -53 98
l-45 95 24 3 c24 3 24 4 -32 123 -30 65 -58 119 -62 119 -3 0 -31 -54 -62
-120 -55 -118 -56 -120 -32 -120 13 0 24 -2 24 -4 0 -1 -20 -46 -45 -99 -25
-53 -45 -99 -45 -101 0 -3 11 -6 24 -8 l23 -3 -34 -76 -34 -76 -209 -98 -209
-97 -228 106 -228 107 -223 -105 c-123 -58 -232 -108 -242 -111 -17 -5 -24 2
-40 40 -25 57 -25 63 -2 67 16 3 12 17 -37 126 l-56 123 -57 -118 c-31 -65
-57 -121 -57 -125 -1 -5 8 -8 20 -8 25 0 22 -11 -33 -124 l-39 -81 28 -5 c36
-7 35 -7 -145 -92 l-143 -67 -772 361 c-425 198 -786 365 -802 370 -28 9 -51
1 -226 -81 -108 -50 -201 -91 -207 -91 -6 0 -28 8 -48 18 -32 14 -43 30 -76
100 -21 45 -38 84 -38 87 0 2 11 5 25 7 l24 3 -44 94 c-25 51 -45 97 -45 102
0 5 9 9 21 9 13 0 19 5 16 13 -3 6 -29 63 -58 126 l-53 114 -58 -123 c-32 -67
-58 -124 -58 -126 0 -2 9 -4 20 -4 11 0 20 -4 20 -9 0 -4 -20 -50 -44 -102
l-44 -94 25 -3 c21 -3 30 -23 10 -24 -5 0 -174 77 -377 172 l-369 171 -86 -40
-85 -40 -40 80 c-37 73 -39 79 -20 79 11 0 20 2 20 4 0 13 -92 198 -96 193 -3
-3 -26 -47 -50 -99 -40 -85 -42 -93 -25 -96 18 -3 17 -8 -15 -77 -39 -84 -39
-85 -19 -85 8 0 15 -4 15 -9 0 -17 -51 -123 -57 -118 -3 3 -27 52 -54 109
l-48 103 28 5 28 5 -70 145 -69 145 -40 -85 c-22 -47 -53 -113 -69 -147 l-28
-63 29 0 29 0 -54 -116 c-30 -64 -55 -118 -55 -120 0 -1 14 -4 30 -6 l31 -3
-39 -81 -39 -80 -87 -39 -86 -38 -125 58 c-69 32 -125 62 -125 68 0 5 -20 52
-45 105 -25 52 -45 99 -45 103 0 5 9 9 21 9 25 0 21 15 -27 113 -32 63 -33 67
-14 67 27 0 26 9 -15 90 -19 38 -35 72 -35 74 0 3 8 6 18 8 17 3 14 14 -28
103 l-47 100 -47 -99 c-25 -54 -46 -100 -46 -102 0 -2 7 -4 15 -4 21 0 19 -9
-20 -92 -34 -69 -34 -73 -15 -76 11 -2 20 -5 20 -6 0 -2 -18 -41 -39 -87 l-40
-84 25 -3 c13 -2 24 -6 24 -8 0 -13 -22 -44 -30 -44 -6 0 -113 48 -239 107
l-229 106 -51 109 c-28 60 -51 113 -51 119 0 5 11 9 25 9 14 0 25 3 25 6 0 3
-23 54 -50 113 -28 59 -50 111 -50 114 0 4 11 7 25 7 14 0 25 2 25 4 0 2 -30
68 -68 146 l-67 142 -67 -143 c-66 -143 -66 -144 -42 -147 13 -2 24 -7 24 -11
0 -5 -23 -56 -50 -115 -28 -59 -50 -109 -50 -111 0 -3 13 -5 30 -5 28 0 29 -1
18 -25 -6 -14 -15 -25 -19 -25 -4 0 -55 22 -113 50 l-106 49 0 -3654 0 -3655
12795 0 12795 0 0 3105 0 3105 -61 -31 c-57 -28 -89 -32 -89 -10 0 5 11 11 24
13 l24 3 -44 94 c-24 52 -44 98 -44 102 0 5 9 9 20 9 11 0 20 2 20 4 0 2 -25
57 -56 122 l-57 119 -57 -120 c-51 -106 -55 -120 -39 -123 27 -5 24 -23 -15
-100 -48 -97 -52 -112 -27 -112 12 0 21 -4 21 -9 0 -5 -17 -47 -39 -93 l-38
-84 -234 -108 c-129 -60 -266 -124 -305 -141 l-71 -33 -163 76 c-95 45 -164
83 -165 92 -2 8 -23 60 -49 114 -25 54 -46 100 -46 102 0 1 11 4 25 6 l24 3
-44 93 c-42 88 -44 94 -25 99 11 3 20 9 20 13 0 4 -24 58 -54 121 l-54 114
-32 -70 c-86 -186 -82 -175 -60 -175 11 0 20 -4 20 -9 0 -4 -18 -47 -40 -95
-22 -47 -40 -89 -40 -91 0 -3 9 -5 20 -5 11 0 20 -4 20 -10 0 -15 -23 -60 -31
-60 -4 0 -54 22 -111 49 -97 45 -106 47 -131 34 l-27 -13 -31 67 c-17 38 -42
92 -55 121 l-24 52 29 0 30 0 -66 140 c-37 77 -69 140 -73 140 -6 0 -130 -259
-130 -272 0 -4 11 -8 25 -10 l25 -3 -54 -115 -54 -115 29 -3 c16 -2 29 -5 29
-6 0 -6 -51 -116 -54 -116 -1 0 -141 65 -311 145 -305 142 -310 145 -332 187
-29 55 -28 68 1 68 l25 0 -45 94 c-24 51 -44 96 -44 100 0 3 9 6 20 6 11 0 20
2 20 5 0 8 -102 228 -110 238 -5 6 -120 -222 -120 -238 0 -3 9 -5 20 -5 11 0
20 -3 20 -7 0 -4 -16 -42 -36 -84 l-36 -77 -167 78 -166 78 -42 88 c-23 49
-42 92 -42 96 -1 4 12 8 28 10 l29 3 -49 104 c-27 57 -49 110 -49 117 0 8 9
14 20 14 11 0 20 3 20 8 0 12 -123 272 -130 272 -4 0 -108 -217 -127 -267 -3
-9 4 -13 22 -13 18 0 25 -4 22 -12 -24 -59 -101 -218 -106 -218 -3 0 -32 57
-63 125 l-57 125 30 0 c16 0 29 3 29 6 0 3 -22 54 -50 113 -27 59 -50 111 -50
114 0 4 12 7 26 7 14 0 24 4 22 9 -25 66 -133 280 -139 274 -7 -8 -129 -270
-129 -278 0 -3 11 -5 25 -5 14 0 25 -2 25 -4 0 -2 -22 -52 -50 -111 -27 -59
-50 -111 -50 -116 0 -5 11 -9 25 -9 29 0 28 2 14 -39 -13 -37 -16 -37 -71 -10
l-43 20 -129 -60 -128 -61 -313 146 -313 146 -28 66 c-16 36 -30 70 -32 74 -2
4 8 8 22 8 l25 0 -43 94 c-44 94 -44 95 -21 98 22 3 21 6 -34 126 l-56 123
-57 -118 c-31 -65 -57 -121 -57 -125 -1 -5 8 -8 19 -8 11 0 20 -2 20 -5 0 -15
-80 -175 -88 -175 -5 0 -112 48 -238 106 l-227 106 -54 -26 -53 -26 -20 40
c-21 41 -21 42 18 52 9 2 0 28 -28 86 -46 96 -47 102 -20 102 23 0 24 -2 -47
149 l-49 103 -54 -117z m2550 -1145 c0 -5 -9 -10 -20 -10 -11 0 -20 5 -20 10
0 6 9 10 20 10 11 0 20 -4 20 -10z m-13497 -237 c-7 -2 -19 -2 -25 0 -7 3 -2
5 12 5 14 0 19 -2 13 -5z m15452 -423 c-27 -12 -35 -12 -35 0 0 6 12 10 28 9
24 0 25 -1 7 -9z m-11235 -4 c0 -12 -13 -36 -20 -36 -4 0 -10 9 -13 20 -4 15
0 20 14 20 10 0 19 -2 19 -4z m2932 -468 c-17 -8 -26 -8 -34 0 -9 9 -4 12 23
11 32 0 33 -1 11 -11z"/>
</g>
</svg>
