<?xml version="1.0" standalone="no"?>
<!DOCTYPE svg PUBLIC "-//W3C//DTD SVG 20010904//EN"
 "http://www.w3.org/TR/2001/REC-SVG-20010904/DTD/svg10.dtd">
<svg version="1.0" xmlns="http://www.w3.org/2000/svg"
 width="2560.000000pt" height="1680.000000pt" viewBox="0 0 2560.000000 1680.000000"
 preserveAspectRatio="xMidYMid meet">

<g transform="translate(0.000000,1680.000000) scale(0.100000,-0.100000)"
fill="#222222" stroke="none">
<path d="M10750 9029 c-1042 -467 -1909 -854 -1925 -860 -27 -10 -45 -4 -197
64 l-166 75 -434 -195 c-238 -108 -440 -195 -448 -195 -8 1 -246 105 -529 232
l-513 230 -842 -376 c-462 -208 -846 -377 -851 -377 -6 0 -133 54 -282 121
l-272 122 -192 -86 c-191 -85 -191 -85 -228 -70 -20 8 -549 244 -1176 525
l-1139 511 -592 -265 c-325 -146 -594 -265 -598 -265 -3 0 -73 30 -154 66 -81
37 -162 73 -179 80 l-33 14 0 -4190 0 -4190 12800 0 12800 0 -2 3806 -3 3806
-836 375 -835 374 -896 -401 -896 -401 -896 401 -896 401 -738 -330 c-406
-182 -743 -331 -748 -331 -6 0 -201 85 -433 189 l-422 190 -163 -73 -162 -73
-1293 579 -1293 579 -162 -72 c-88 -40 -168 -72 -176 -72 -8 1 -100 41 -205
88 -479 218 -1884 845 -1892 844 -4 0 -861 -383 -1903 -850z"/>
</g>
</svg>
