<?xml version="1.0" standalone="no"?>
<!DOCTYPE svg PUBLIC "-//W3C//DTD SVG 20010904//EN"
 "http://www.w3.org/TR/2001/REC-SVG-20010904/DTD/svg10.dtd">
<svg version="1.0" xmlns="http://www.w3.org/2000/svg"
 width="2560.000000pt" height="1680.000000pt" viewBox="0 0 2560.000000 1680.000000"
 preserveAspectRatio="xMidYMid meet">

<g transform="translate(0.000000,1680.000000) scale(0.100000,-0.100000)"
fill="#191919" stroke="none">
<path d="M7307 7381 c-31 -67 -57 -124 -57 -126 0 -3 9 -5 20 -5 11 0 20 -4
20 -9 0 -4 -20 -50 -44 -102 l-44 -94 24 -3 c28 -4 27 -17 -9 -87 l-20 -40
-48 104 c-27 57 -49 105 -49 107 0 1 11 4 24 6 23 3 22 5 -37 128 l-59 125
-59 -120 c-31 -66 -58 -123 -58 -127 -1 -5 10 -8 24 -8 l25 0 -20 -41 c-12
-22 -25 -39 -29 -37 -5 2 -101 45 -215 97 l-206 94 -313 -142 c-171 -78 -315
-141 -319 -141 -18 0 -6 30 12 30 19 0 18 4 -14 68 -48 96 -52 112 -27 112 18
0 15 9 -28 101 -26 55 -51 101 -56 101 -5 0 -30 -46 -56 -101 -43 -92 -46
-101 -28 -101 24 0 21 -16 -22 -102 -33 -65 -35 -78 -14 -78 23 0 18 -24 -19
-99 -29 -57 -41 -71 -73 -84 -35 -14 -39 -14 -50 1 -20 25 -15 42 12 42 14 0
25 3 24 8 0 4 -22 54 -48 112 l-48 105 24 3 c30 4 29 7 -46 167 l-57 120 -33
-70 c-18 -39 -48 -103 -67 -142 l-33 -73 24 0 c14 0 25 -2 25 -5 0 -2 -22 -52
-49 -110 -48 -101 -49 -105 -27 -105 12 0 25 -3 28 -6 7 -6 -88 -212 -107
-232 -10 -11 -328 -162 -340 -162 -4 0 -35 79 -35 90 0 6 7 10 15 10 21 0 20
2 -34 115 l-48 100 -51 -102 c-29 -57 -52 -105 -52 -108 0 -3 9 -5 20 -5 11 0
20 -2 20 -5 0 -3 -18 -41 -40 -85 -22 -44 -40 -82 -40 -85 0 -3 9 -5 20 -5 11
0 20 -3 20 -7 0 -5 -84 -46 -186 -92 l-186 -83 -314 142 -314 143 -601 -273
c-331 -150 -606 -273 -613 -273 -6 0 -186 82 -401 182 l-390 182 -365 -171
c-201 -93 -372 -170 -380 -170 -9 0 -189 79 -400 175 -211 96 -388 175 -392
175 -4 0 -8 -1420 -8 -3155 l0 -3155 12795 0 12795 0 0 3505 c0 1928 -2 3505
-4 3505 -3 0 -59 -25 -126 -55 -67 -30 -125 -55 -129 -55 -7 0 -31 43 -31 55
0 3 7 5 15 5 8 0 15 2 15 4 0 7 -80 176 -83 176 -2 0 -21 -39 -42 -86 -31 -70
-36 -87 -24 -94 11 -8 8 -21 -18 -74 -18 -36 -28 -66 -22 -68 6 -2 -55 -33
-136 -70 l-145 -66 -14 31 c-8 18 -31 68 -51 112 l-38 80 -58 -124 c-33 -68
-59 -125 -59 -127 0 -2 9 -4 20 -4 44 0 9 -58 -48 -80 -18 -7 -34 -11 -35 -9
-1 2 -12 25 -25 52 -21 45 -21 47 -3 47 18 0 17 5 -12 71 -25 55 -29 72 -18
78 10 7 4 27 -26 92 l-39 84 -40 -85 c-29 -61 -37 -86 -27 -88 19 -5 17 -15
-17 -82 -35 -69 -35 -70 -15 -70 18 0 19 -17 2 -48 -13 -22 -15 -19 -53 62
-21 47 -41 85 -44 86 -6 0 -100 -201 -100 -212 0 -5 9 -8 20 -8 17 0 15 -8
-22 -86 -30 -62 -38 -88 -29 -93 7 -5 -13 -18 -52 -35 l-64 -27 -134 61 c-142
65 -167 80 -131 80 12 0 22 2 22 4 0 1 -20 46 -45 99 -25 53 -45 99 -45 102 0
3 9 5 20 5 11 0 20 4 20 9 0 4 -25 62 -56 127 l-56 119 -40 -85 c-81 -173 -80
-170 -58 -170 11 0 20 -4 20 -9 0 -12 -38 -101 -43 -101 -3 0 -40 16 -83 36
-44 20 -102 46 -130 59 l-52 23 -138 -63 c-97 -44 -141 -59 -146 -52 -11 18
-10 25 6 29 10 2 4 24 -26 88 l-40 85 -41 -83 c-32 -67 -38 -85 -27 -92 12 -7
11 -15 -4 -47 l-19 -38 -33 70 c-39 83 -41 95 -14 95 11 0 20 2 20 4 0 2 -26
59 -59 127 l-58 124 -51 -108 c-67 -141 -68 -147 -43 -147 26 0 26 2 0 -57
l-21 -48 -18 35 c-24 45 -24 50 0 50 11 0 20 2 20 3 0 2 -19 42 -41 88 -23 46
-46 95 -51 109 -10 23 -14 17 -63 -85 -47 -99 -51 -110 -34 -113 11 -2 19 -5
19 -6 0 -2 -16 -38 -35 -80 -41 -89 -42 -96 -15 -96 43 0 4 -30 -104 -79 -62
-28 -118 -51 -123 -51 -6 0 -198 88 -428 195 -230 107 -422 195 -426 195 -3 0
-117 -52 -253 -115 l-246 -114 -838 380 c-726 331 -840 380 -862 371 -14 -5
-274 -123 -578 -261 -411 -187 -559 -250 -575 -245 -12 4 -43 17 -69 30 -26
13 -54 24 -62 24 -8 0 -108 -43 -223 -95 l-208 -94 -32 62 c-38 74 -39 77 -13
77 22 0 23 -4 -55 163 l-27 59 -43 -90 c-56 -118 -60 -132 -41 -132 22 0 21
-7 -19 -93 -19 -42 -35 -78 -35 -81 0 -3 9 -6 20 -6 24 0 24 -1 4 -43 -13 -27
-31 -41 -87 -66 -39 -17 -71 -30 -73 -28 -5 6 -54 107 -54 112 0 3 7 5 15 5 8
0 15 2 15 4 0 6 -81 176 -84 176 -2 0 -21 -39 -42 -86 -28 -63 -35 -87 -26
-93 13 -8 8 -35 -10 -58 -7 -8 -39 3 -120 40 -62 29 -104 53 -95 55 21 4 22
-1 -13 74 -25 51 -27 64 -15 66 8 2 15 5 15 7 0 2 -18 43 -41 91 l-40 89 -40
-84 c-44 -93 -45 -101 -24 -101 14 0 14 -4 -1 -32 -9 -18 -18 -34 -19 -36 -2
-2 -73 29 -159 67 -86 39 -161 71 -167 71 -7 0 -156 -65 -332 -145 -176 -80
-322 -144 -324 -141 -2 2 -19 36 -38 75 -24 50 -31 73 -22 76 6 2 17 5 23 7 7
2 -13 53 -48 128 l-59 124 -58 -124 c-35 -75 -54 -126 -47 -128 6 -2 16 -5 23
-7 8 -3 -3 -35 -32 -98 -25 -52 -45 -97 -45 -101 0 -3 9 -6 20 -6 23 0 24 -5
9 -50 -10 -27 -24 -38 -98 -72 -143 -66 -128 -67 -160 5 l-28 62 23 5 c22 5
21 7 -34 128 -31 67 -59 122 -63 122 -5 0 -100 -195 -117 -241 -2 -5 8 -9 21
-9 l26 0 -45 -95 c-24 -52 -44 -99 -44 -105 0 -5 9 -10 20 -10 22 0 27 -24 8
-37 -7 -4 -98 -47 -203 -95 l-190 -86 -22 41 c-28 52 -28 67 -4 67 18 0 17 6
-15 76 -39 87 -39 84 -18 84 9 0 14 6 11 13 -3 6 -17 38 -31 70 -21 45 -23 57
-11 57 8 0 15 2 15 5 0 11 -80 178 -84 174 -2 -2 -21 -41 -42 -87 -31 -69 -35
-85 -23 -92 11 -8 8 -21 -18 -74 -31 -61 -31 -65 -12 -68 18 -3 17 -7 -16 -76
-19 -41 -35 -76 -35 -78 0 -2 9 -4 20 -4 11 0 20 -2 20 -5 0 -6 -29 -66 -35
-73 -2 -2 -69 27 -151 64 l-148 67 -40 -16 c-23 -8 -104 -44 -182 -80 l-141
-64 -53 115 -54 115 -58 -123 c-32 -68 -58 -127 -58 -131 0 -5 9 -9 20 -9 47
0 4 -58 -68 -90 l-60 -28 -685 320 -685 319 -31 -16 -32 -16 -24 53 c-30 64
-31 78 -6 78 22 0 22 -1 -62 180 l-36 75 -59 -125 c-34 -73 -54 -126 -48 -128
6 -2 16 -5 23 -7 8 -3 -3 -36 -32 -99 -25 -53 -45 -98 -45 -101 0 -3 12 -5 26
-5 54 0 0 -42 -137 -106 -74 -35 -137 -63 -140 -63 -5 -1 -29 44 -29 54 0 2
11 5 24 7 l24 3 -44 93 c-41 88 -42 94 -24 99 11 3 20 7 20 9 0 1 -16 37 -35
80 -19 42 -35 78 -35 80 0 1 8 4 18 6 16 3 13 15 -31 108 l-50 105 -48 -104
c-27 -57 -49 -105 -49 -107 0 -2 7 -4 15 -4 21 0 19 -9 -19 -94 -32 -70 -33
-76 -15 -76 10 0 19 -4 19 -9 0 -4 -18 -47 -40 -94 -22 -47 -40 -87 -40 -90 0
-3 11 -7 24 -9 l24 -3 -49 -105 c-27 -57 -47 -110 -45 -117 3 -7 3 -13 0 -13
-3 0 -182 81 -400 179 l-394 180 -196 -90 -197 -89 -411 186 c-226 102 -419
195 -428 206 -25 29 -22 48 6 48 l25 0 -45 95 c-24 52 -44 99 -44 105 0 5 9
10 20 10 23 0 24 -2 -48 150 l-49 105 -51 -108 c-67 -141 -68 -147 -43 -147
12 0 21 -2 21 -4 0 -14 -61 -136 -67 -136 -5 0 -147 63 -317 140 l-307 140
-46 -20 c-25 -11 -47 -20 -49 -20 -5 0 -40 70 -48 97 -6 18 -2 22 18 25 l24 3
-44 94 c-24 52 -44 98 -44 102 0 5 9 9 20 9 11 0 20 3 19 8 0 4 -26 61 -57
126 l-57 119 -58 -122z"/>
</g>
</svg>
