<?xml version="1.0" standalone="no"?>
<!DOCTYPE svg PUBLIC "-//W3C//DTD SVG 20010904//EN"
 "http://www.w3.org/TR/2001/REC-SVG-20010904/DTD/svg10.dtd">
<svg version="1.0" xmlns="http://www.w3.org/2000/svg"
 width="2560.000000pt" height="1680.000000pt" viewBox="0 0 2560.000000 1680.000000"
 preserveAspectRatio="xMidYMid meet">

<g transform="translate(0.000000,1680.000000) scale(0.100000,-0.100000)"
fill="#fff" stroke="none">
<path d="M14015 10080 c-198 -93 -382 -180 -409 -193 l-49 -23 411 -192 c226
-106 415 -192 419 -192 9 0 834 383 830 386 -10 8 -827 384 -834 383 -4 0
-170 -77 -368 -169z"/>
<path d="M88 9853 l-78 -36 0 -172 0 -172 79 -36 79 -36 258 121 c143 66 260
121 261 122 2 2 -502 239 -516 243 -3 1 -41 -15 -83 -34z"/>
<path d="M7551 9669 c-222 -104 -405 -190 -407 -192 -1 -1 184 -89 412 -195
l414 -194 412 192 c227 106 414 193 416 195 4 4 -819 385 -831 384 -7 0 -194
-85 -416 -190z"/>
<path d="M15495 9340 l-1109 -519 44 -19 c25 -11 528 -245 1119 -521 l1073
-501 1107 516 c608 283 1109 519 1113 522 8 8 -2202 1043 -2224 1041 -7 0
-512 -234 -1123 -519z"/>
<path d="M2818 9523 c-137 -64 -248 -119 -248 -122 0 -7 499 -241 512 -241 7
0 435 198 492 227 28 15 28 15 -225 134 -140 65 -261 118 -269 118 -8 0 -126
-53 -262 -116z"/>
<path d="M8888 9123 c-609 -284 -1104 -520 -1100 -524 4 -4 505 -239 1113
-523 l1106 -516 1112 519 c611 285 1113 520 1115 522 5 5 -2199 1033 -2222
1037 -9 1 -515 -231 -1124 -515z"/>
<path d="M18803 9451 c-161 -75 -292 -138 -292 -141 0 -6 570 -271 584 -271
13 -1 585 265 585 271 0 3 -82 43 -182 89 -101 47 -232 108 -293 136 l-110 51
-292 -135z"/>
<path d="M22382 9358 c-166 -78 -299 -145 -295 -149 13 -13 586 -280 603 -281
14 -1 597 266 612 281 6 5 -574 282 -605 288 -7 2 -148 -61 -315 -139z"/>
<path d="M838 9033 l-828 -387 0 -267 0 -267 828 -386 c455 -212 830 -386 834
-386 3 0 299 137 658 304 l651 304 652 -304 c359 -167 657 -303 664 -302 28 6
2220 1033 2217 1039 -2 3 -502 238 -1113 523 l-1110 518 -655 -306 -654 -305
-644 300 c-354 166 -650 303 -658 305 -8 2 -387 -170 -842 -383z"/>
<path d="M20395 8795 c-605 -282 -1106 -517 -1113 -522 -8 -5 367 -185 1079
-517 601 -280 1104 -513 1118 -519 23 -8 75 14 403 167 208 97 381 176 386
176 5 0 337 -153 737 -340 l729 -340 930 434 931 434 3 173 2 174 -919 428
c-506 236 -928 431 -938 433 -10 3 -177 -70 -392 -171 -206 -96 -379 -175
-384 -175 -5 0 -334 151 -731 336 -396 185 -725 338 -731 340 -5 2 -505 -228
-1110 -511z"/>
<path d="M24658 9041 c-136 -64 -244 -119 -240 -123 4 -3 120 -59 258 -123
l251 -117 199 93 c110 50 228 105 263 121 l64 29 -257 120 c-141 65 -264 119
-273 118 -10 -1 -129 -53 -265 -118z"/>
</g>
</svg>
