<?xml version="1.0" standalone="no"?>
<!DOCTYPE svg PUBLIC "-//W3C//DTD SVG 20010904//EN"
 "http://www.w3.org/TR/2001/REC-SVG-20010904/DTD/svg10.dtd">
<svg version="1.0" xmlns="http://www.w3.org/2000/svg"
 width="2560.000000pt" height="1680.000000pt" viewBox="0 0 2560.000000 1680.000000"
 preserveAspectRatio="xMidYMid meet">

<g transform="translate(0.000000,1680.000000) scale(0.100000,-0.100000)"
fill="#242424" stroke="none">
<path d="M18680 9178 c-239 -109 -438 -198 -442 -198 -5 0 -65 25 -133 57
l-125 56 -870 -395 -869 -395 -197 89 -197 90 -1083 -493 -1083 -492 -832 378
c-457 208 -836 378 -843 378 -6 0 -117 -48 -246 -107 l-235 -107 -968 440
-968 440 -428 -194 c-235 -107 -433 -195 -440 -195 -6 0 -181 77 -389 171
-207 95 -400 182 -428 195 l-51 22 -75 -34 -75 -34 -572 260 c-315 143 -578
260 -586 260 -8 0 -578 -256 -1268 -570 -690 -313 -1260 -570 -1268 -570 -8 0
-206 87 -439 193 l-425 194 -96 -45 -96 -44 -290 132 -289 131 -390 -177
c-214 -98 -396 -177 -404 -176 -8 1 -357 157 -775 347 -418 191 -770 351 -782
356 l-23 9 0 -4575 0 -4575 12800 0 12800 0 0 4224 0 4225 -32 -14 c-18 -7
-375 -169 -793 -360 -702 -320 -762 -345 -790 -336 -16 6 -459 206 -984 444
l-955 433 -313 -142 -313 -143 -1103 501 c-606 275 -1124 510 -1152 522 l-50
22 -435 -198z"/>
</g>
</svg>
